<svg width="436" height="420" viewBox="0 0 436 420" fill="none" xmlns="http://www.w3.org/2000/svg">
<path d="M139.727 267.726C114.449 275.87 88.9687 280.093 62.7588 279.869C44.7624 279.715 26.7636 279.841 8.76584 279.833C0.286863 279.829 0.27896 279.819 0.266112 271.587C0.198973 228.594 0.185485 185.6 0.00015095 142.608C-0.0196851 138.006 1.91507 137.153 6.02209 137.164C49.5163 137.288 93.0109 137.249 136.505 137.254C145.294 137.255 145.33 137.224 145.332 128.288C145.34 87.7926 145.339 47.2977 145.353 6.80279C145.356 0.149224 145.384 0.0753098 151.927 0.0730818C197.422 0.0575178 242.916 0.126152 288.41 8.37628e-05C292.772 -0.0120012 294.178 1.28082 294.116 5.68697C293.871 22.8482 294.664 40.049 293.807 57.1717C291.729 98.6682 280.245 137.453 257.584 172.505C228.836 216.971 190.001 249.17 139.727 267.726Z" fill="white"/>
<path d="M155.443 325.38C163.913 301.354 179.074 282.694 198.164 266.912C216.001 252.166 234.435 238.117 250.098 220.89C271.243 197.635 288.325 171.794 300.471 142.775C302.075 138.942 304.074 137.117 308.561 137.135C348.719 137.296 388.878 137.295 429.035 137.105C434.043 137.081 435.103 138.884 435.087 143.495C434.94 186.819 434.92 230.144 435.102 273.467C435.123 278.495 433.745 279.963 428.653 279.938C386.496 279.738 344.337 279.818 302.179 279.823C294.757 279.824 294.77 279.845 294.772 287.364C294.787 329.022 294.8 370.68 294.801 412.338C294.801 419.408 294.583 419.622 287.491 419.623C242.5 419.625 197.51 419.619 152.519 419.601C145.294 419.598 145.335 419.563 145.263 412.473C145.026 388.999 144.703 365.51 150.317 342.475C151.693 336.83 153.645 331.325 155.443 325.38Z" fill="white"/>
</svg>
